# xmcd CD database file
#
# Track frame offsets:
#	150
#	45914
#	72869
#	95171
#	121909
#	144633
#	159882
#	179757
#	204951
#	227742
#
# Disc length: 3235 seconds
#
# Revision: 0
# Processed by: cddbd v1.5.1PL0 Copyright (c) Steve Scherf et al.
# Submitted via: CDex 1.51
#
DISCID=840ca10a
DTITLE=Yakare - Cuban Jazz Salsa
DYEAR=1998
DGENRE=Salsa
TTITLE0=Dame tu amor Guantanamera
TTITLE1=Dame otra oportunidad
TTITLE2=El canonero 
TTITLE3=Indiferencia con eso 
TTITLE4=Cachette pechito y ombliguito
TTITLE5=Como fue
TTITLE6=Rumberos de ayer
TTITLE7=Vengan mujeres
TTITLE8=Esto esta completo
TTITLE9=El conde negro
EXTD=YEAR: 1998
EXTT0=
EXTT1=
EXTT2=
EXTT3=
EXTT4=
EXTT5=
EXTT6=
EXTT7=
EXTT8=
EXTT9=
PLAYORDER=
